<svg xmlns="http://www.w3.org/2000/svg" version="1.1" viewBox="0 0 1600 542" width="2048" height="695">
<path transform="translate(373,118)" d="m0 0h35l20 3 20 5 19 7 16 8 15 9 10 8 10 9 8 7 7 9 3 9v18l-4 10-4 6-8 8-11 5-4 1h-14l-11-4-8-6-12-10-17-10-16-6-13-3-10-1h-15l-19 3-19 7-13 7-13 10-12 12-7 10-7 12-6 18-2 9-1 9v21l3 18 5 14 7 14 10 13 11 11 16 11 15 7 19 5 5 1 17 1 17-2 14-4 16-8 13-9 11-10 8-5 9-3 12-1 11 2 10 5 8 7 7 12 2 7v18l-4 11-8 11-13 12-17 12-18 10-25 10-24 6-14 2-15 1h-12l-22-2-23-5-21-7-17-8-16-10-13-10-10-9-12-12-10-13-10-15-8-16-8-19-6-21-3-17-1-9v-37l4-25 6-20 8-19 9-17 10-14 9-11 12-13 13-11 17-12 20-11 24-9 21-5z" fill="#274D97"/>
<path transform="translate(373,118)" d="m0 0h35l20 3 20 5 19 7 16 8 15 9 10 8 10 9 8 7 7 9 3 9v18l-4 10-4 6-8 8-11 5-4 1h-14l-11-4-8-6-12-10-17-10-16-6-13-3-10-1h-15l-19 3-19 7-13 7-13 10-16 16v-2l-2-1-4-9-1-5-3 1-2-6h-2l-2-4v-2l-8-5-9-5-15-3-8-6-3-5h-3l-5 4 2-4 8-10 12-13 13-11 17-12 20-11 24-9 21-5z" fill="#29C2E1"/>
<path transform="translate(248,189)" d="m0 0 5 4 1 3 7 5 15 3 9 5 4 3 5 3 1 4h2l3 7h2l2 5 5 10-1 5-9 15-2 5h-2l-13 21-8 16-8 20-5 22-2 17v19l3 24v6l-5 2h-12l-1 9-5-5-9-15-8-16-8-21-6-25-2-16v-37l4-25 6-20 8-19 9-17 8-11z" fill="#249DCB"/>
<path transform="translate(373,118)" d="m0 0h35l20 3 20 5 19 7 16 8 15 9 10 8 10 9 8 7 7 9 3 9v18l-4 10-4 6-8 8-11 5-4 1h-14l-11-4-8-6-11-9-1-4-12-13-11-10-17-12-12-7-15-6-1-2 1-3v-7l-4-8-6-5-9-6-8-6-5-2v-2h-2v-2l4-4-4-2z" fill="#36DAED"/>
<path transform="translate(610,267)" d="m0 0h20l16 4 12 5 11 8 9 9 8 13 5 14 2 17-1 14-4 14-6 12-8 10-7 7-14 8-13 5-12 2h-16l-15-3-16-7-8-6-7-6-9-13-6-14-3-13v-19l4-15 8-16 11-12 9-7 14-7zm4 29-10 3-9 6-7 7-6 12-2 10v10l3 12 5 9 6 7 10 6 12 3 13-1 12-5 9-8 6-10 3-9v-20l-3-10-7-10-8-7-9-4-5-1z" fill="#249DCB"/>
<path transform="translate(1356,267)" d="m0 0h18l14 3 13 5 10 7 8 7 8 11 7 15 3 14v19l-4 16-7 14-10 12-12 9-15 7-13 3h-21l-16-4-14-7-13-11-8-10-6-12-4-14-1-6v-16l3-14 6-14 8-10 10-10 14-8 16-5zm3 29-10 3-8 5-5 4-7 11-3 9-1 13 3 14 4 8 9 10 12 6 13 2 12-2 10-5 8-8 5-8 3-10 1-10-2-13-4-10-7-9-8-6-13-4z" fill="#39DAED"/>
<path transform="translate(1029,267)" d="m0 0h10l12 2 13 5 9 7 8 9 6 13 2 10v14l-3 10-4 6-6 5-10 2h-29l-35-1 2 9 5 10 8 7 10 4h19l12-5 6-3 9 1 6 4 3 6v8l-4 7-10 6-12 4-13 2h-15l-14-3-12-5-11-7-9-10-8-14-4-13-2-13v-11l2-14 4-12 7-13 9-10 7-6 14-7 11-3zm-2 27-10 4-8 7-5 8-3 12h49l5-4 1-2v-8l-5-10-9-6-5-1z" fill="#249DCB"/>
<path transform="translate(768,267)" d="m0 0h13l16 4 9 6 7 8 5 10 3 12 1 8v80l-3 6-7 6-4 1h-7l-8-4-4-5-1-3-1-76-2-10-5-8-8-4h-15l-10 5-6 10-1 4-1 78-3 7-5 4-5 2h-8l-8-4-4-6-1-4v-116l4-6 4-3 9-1 6 3 6 7 2 5 10-8 12-6z" fill="#25AFD7"/>
<path transform="translate(903,267)" d="m0 0h12l13 3 11 6 7 7 7 14 2 9 1 10v75l-2 9-4 5-7 3h-8l-6-3-5-6-1-3-1-75-2-10-5-8-6-4-3-1h-15l-8 4-7 8-2 5-1 7-1 76-4 6-8 4h-8l-6-3-6-7-1-4v-115l3-6 5-4 7-1 7 2 6 7 3 7 11-9 12-6z" fill="#2BC3E1"/>
<path transform="translate(494,371)" d="m0 0 12 1 10 4 10 8 7 11 3 9v18l-4 11-8 11-13 12-17 12-18 10h-3v-4l-3 1-6-6-5-2-2-2-4-1v-2l-4-2-2-2-2 1-7-8-8-9-10-6-5-5v-3l-3-1v-3l-5-2-2-4-7-4v-1l17-2 14-4 16-8 13-9 11-10 8-5 9-3z" fill="#2878B9"/>
<path transform="translate(1168,267)" d="m0 0 16 1 15 4 5 5 1 2v8l-3 8-5 4-2 1h-7l-10-2h-12l-13 4-9 7-6 8-4 9-1 5v15l4 13 6 8 7 6 8 4 9 2h8l16-3 8 1 6 5 2 5v11l-4 5-8 3-16 3h-15l-15-3-16-7-11-8-9-9-8-14-4-11-2-11v-17l4-17 8-15 11-12 13-9 15-6 9-2z" fill="#249ECB"/>
<path transform="translate(355,56)" d="m0 0h14l8 4 5 7 1 3v9l-3 6-6 5-9 3-22 4-27 9-20 9-18 11-14 10-14 12-14 14-9 4h-9l-6-3-6-7-1-2v-12l3-6 9-10 8-8 11-9 13-10 19-12 19-10 25-10 23-7z" fill="#2AC2E1"/>
<path transform="translate(1236,236)" d="m0 0h11l9 6 2 4v23h14l11 1 7 6 2 6-1 8-4 6-5 3h-24l2 71 3 5 3 2 20 1 6 5 2 6v8l-4 6-9 4-5 1h-15l-11-3-10-6-8-9-5-10-1-6-1-19v-104l2-8 5-5z" fill="#28C2E1"/>
<path transform="translate(206,287)" d="m0 0 5 1 5 2 4 3 10 1 7 3 11 8 4 5 2 5 2 1v3l4 2v2l3 1 1 7-4 21-1 10v19l3 24v6l-5 2h-12l-1 9-5-5-9-15-8-16-8-21-6-25-2-16z" fill="#2778B9"/>
<path transform="translate(1298,335)" d="m0 0 2 1v2l10 1 5 4 1-3 4 4 4 9 8 8 6 8 6 5 12 5 10 1 12-2 14-7 9-3 4-4 3-5 2-1 18 1v2h2v5l1 3-6 10-9 11-12 9-15 7-13 3h-21l-16-4-14-7-13-11-8-10-6-12-4-14v-13z" fill="#249ECB"/>
<path transform="translate(573,344)" d="m0 0h6l5 12 5 9 5 6 10 6 12 3 13-1 12-5 8-7 6-10 5-2 3 3-1 2h3v2l14 2 6 2v6l-9 13-9 9-14 8-13 5-12 2h-16l-15-3-16-7-8-6-7-6-9-13-6-14-2-7v-6l5-1 16-1z" fill="#277ABA"/>
<path transform="translate(426,121)" d="m0 0 15 3 24 8 17 8 19 12 14 12 13 12 6 9 2 7v18l-4 10-4 6-7 7-1-4v-7l-7-1-10-6-2-4-3-2-4-12-4-4-5-3-8-8-7-10-6-11-3-5-6-2-5-1-4-2-1-2-7-2v-2l-3-1-4-9-4-8v-3z" fill="#44E8F0"/>
<path transform="translate(172,229)" d="m0 0 9 1 6 4 5 6 1 3v12l-4 21-2 25v30l-7 8-5 3h-11l-9-6-4-7-2-10v-37l4-27 4-15 6-7 5-3z" fill="#249DCB"/>
<path transform="translate(1029,267)" d="m0 0h10l12 2 13 5 9 7 8 9 6 13 2 10v14l-3 10-2 1-1-4-2-6-7-3-10-1-6 2-5 2-5-1v2l-10 1-10-2-6-2v-1l28-1 5-5v-8l-5-10-8-5-5-1h-10l-10 4-7 6-5 8-3 7-1-2h-2v-2l-12-3-3-1-3-3v-2l-7 2 2-6 7-12 11-11 14-8 14-4z" fill="#2AC3E1"/>
<path transform="translate(706,292)" d="m0 0 6 2 1-2 5 4 3 3 9 3 12 5-1 6-1 4-1 78-3 7-5 4-5 2h-8l-8-4-4-6-1-4v-82z" fill="#249ECB"/>
<path transform="translate(219,238)" d="m0 0 3 1 1 4 3-2 6 3 19 4 10 8 8 7 2 8 3 3 2 4 5 1-2 5h2l1 3-8 16-10 25-2-4-6-5v-3l-3-1-3-6-4-5-12-8-10-2-6-1-11-6v-8l3-17 6-20 1-3z" fill="#248CC3"/>
<path transform="translate(284,152)" d="m0 0 2 1-2 5-1 6h4v3l6 2 3 2v3l5 1 12 8 3 3v3l6 2 9 9 6 3v2l4 1 4 5h-3l-1 4-11 8-10 9-11 11v-2l-2-1-4-9-1-5-3 1-2-6h-2l-2-4v-2l-8-5-9-5-15-3-8-6-3-5h-3l-5 4 2-4 8-10 12-13 13-11z" fill="#26AFD7"/>
<path transform="translate(1168,267)" d="m0 0 16 1 15 4 5 5 1 2v8l-3 8-5 4-2 1h-7l-10-2h-12l-13 4-9 7-6 8-4 9-2 9-2-4h-2v-3l-4-1-8-3v4h-3l-3 3-4 1-1-3 1-1-5-1v4h-2l3-16 8-16 7-9 10-9 12-7 15-5z" fill="#2AC3E1"/>
<path transform="translate(364,409)" d="m0 0 12 2 5 1 14 1 8 3 3 2 2 4 4 2 1 3 2 1 1 5 4 2 11 7 9 10 1 3 4 2 4 1 4 4v2l5 1 2 2 6 2 5 5h2v5l-19 8-22 6-7 1 1-3h2l-1-6-1-3-4-2-2-7 2-2-4-5-3-1v-2l-6-1-8-7-3-4-5-2-13-12-5-6-6-7-2-2v-4l-2-1z" fill="#2664AB"/>
<path transform="translate(783,302)" d="m0 0 9 2 12 12h16l1 1v81l-6 7-7 3h-7l-8-4-4-5-1-3-1-76-2-10-2-4z" fill="#249DCB"/>
<path transform="translate(840,305)" d="m0 0 5 2 11 6 10 4 6 4v77l-4 6-8 4h-8l-6-3-6-7z" fill="#248CC3"/>
<path transform="translate(494,371)" d="m0 0 12 1 10 4 10 8 7 11 3 9v18l-4 11-6 8-4-2-4-4-6-4v-2h-3l-4-10-6-5-11-4-13-10-7-3-1-7-3-3h-3l11-9 10-5z" fill="#248CC3"/>
<path transform="translate(977,363)" d="m0 0h6l4 7 4 4 13 3 4 2 6-2 1-2 12 4h19l12-5 6-3 9 1 6 4 3 6v8l-4 7-10 6-12 4-13 2h-15l-14-3-12-5-11-7-9-10-8-14v-5z" fill="#248DC3"/>
<path transform="translate(355,56)" d="m0 0h14l8 4 5 7 1 3v9l-3 6-6 5-9 3-22 4-22 7-2-1 3-1-1-3-3-1 2-3-4-2-2-5v-6l-1-2-7-2v-9l25-8z" fill="#39DAED"/>
<path transform="translate(924,324)" d="m0 0 11 2 1 3 4-1 9 4 3 6v2h2l1 30v28l-4 6-8 4h-8l-6-3-5-6-1-3v-70z" fill="#249DCB"/>
<path transform="translate(437,61)" d="m0 0h13l23 7 9 4 5 5 3 6 1 7-3 9-6 5-8 3-9-1-22-7-10-4-6-5-3-7v-8l3-6 5-5z" fill="#38DAED"/>
<path transform="translate(1236,236)" d="m0 0h11l9 6 2 4v23h14l11 1 7 6 2 6-1 8-4 6-5 3h-17v-1l11-1-3-5-4-1-14-5-21-4-8-2v16h-1v-45l2-8 5-5z" fill="#38DAED"/>
<path transform="translate(1226,352)" d="m0 0 2 1 2 6 3 4h11l13-3 2 4 2 9 5 4 20 1 6 5 2 6v8l-4 6-9 4-5 1h-15l-11-3-10-6-8-9-5-10-1-6z" fill="#249ECB"/>
<path transform="translate(676,294)" d="m0 0 5 3 7 14 4 14 1 15-2 16-5 14-3-3-4-2-15-2 1-3h-3l-2-4-4 1 2-9v-20l-3-10-7-10 1-3 1-1 11-2 6-3 7-2z" fill="#249ECB"/>
<path transform="translate(1422,294)" d="m0 0 4 4 8 17 3 14v19l-4 16-3 3-1-2 1-4h-2v-2h-18l-3 3-4 6-3 2-7 1-4 2 6-7 5-8 3-10 1-10-2-13-4-10-7-9v-3l4 1 5-3 1-1h19l1-5z" fill="#2BC3E1"/>
<path transform="translate(1335,285)" d="m0 0 4 1 7 1v1l17 1 1 3 8 2v1h-13v2l-10 3-8 5-5 5-6 9-3 9-1 13 3 14 1 3-5-2-3-4-4-10h-2l-1 2-5-4-10-2-2-2-3 2v7h-2v-16l3-14 6-14 8-10 5-4 1 3 10-1z" fill="#2BC3E1"/>
<path transform="translate(610,267)" d="m0 0h20l16 4 12 5 11 8 9 9-1 2-5 4-9 3-5 2h-8l-1 2h-3l-9-6-10-3-13-1v-1h6l-3-5-8-4v-2h-3l-1-4-4-1v-2h-8l-4-2v-2l11-4z" fill="#25AFD7"/>
<path transform="translate(549,127)" d="m0 0h11l8 4 9 9 7 10 2 5v9l-3 6-7 6-5 2h-7l-7-3-8-7-11-13-2-5v-10l5-8z" fill="#39DAED"/>
<path transform="translate(976,307)" d="m0 0h5v2l3 1v2l9 1 6 3v2h2l1 5-1 2h21l8 3 13 1h5v-2l9-1 2-2 10-1 9 2 5 5 2 6-1 5-3 2-4-1v-2h-8l-5-1h-10l-9 4-2 1h-13l-4-1v-2l-5-2-1-3-3-1v-2h-4v-2l-15-1-3 2-14 6-7 2-1 3h-3v9h-1l-1-8v-11l2-14 3-10z" fill="#25AFD7"/>
<path transform="translate(706,349)" d="m0 0 4 2v3l5 1 6 2h17v42l-5 6-7 3h-8l-8-4-4-6z" fill="#2779B9"/>
<path transform="translate(221,364)" d="m0 0h2v2l17 3 8 3 7-1 3-1 3 29 1 12-5 2h-12l-1 9-5-5-9-15-8-16-4-10v-8h2z" fill="#2663AB"/>
<path transform="translate(168,260)" d="m0 0 5 3 7 8 2 5 5 1v54l-7 8-3 2h-8l-3-7 1-12-2-12v-23l2-23z" fill="#248DC3"/>
<path transform="translate(840,305)" d="m0 0 5 2 11 6 10 4 6 4v44h-1v-12l-3 3-9 1h-7l-10-2-1-2-1-11z" fill="#249DCB"/>
<path transform="translate(1168,267)" d="m0 0 16 1 15 4 5 5 1 2v8l-3 8-3 1-3-2h-5l-5-4-11-2-12-2-8-3-10-1-16 6h-5-2l-6 6-2-1 9-9 14-9 13-5 9-2z" fill="#3CDBED"/>
<path transform="translate(172,229)" d="m0 0 9 1 6 4 5 6 1 3v12l-4 21-1 8h-1l-1-6h-4l-2-3-2-5-5-5v-2l-4-2-2 4h-2l-2-4-6-3-2-2-1-5 3-11 6-7 5-3z" fill="#249ECB"/>
<path transform="translate(768,267)" d="m0 0h13l16 4 9 6 5 5-2 4-1 1h-24l-10-3-4-4-10-3-10 2-2 1-1 3-8 5-7-1-7-7-7-4h-8l-1-4 4-3 9-1 6 3 6 7 2 5 10-8 12-6z" fill="#2BC2E1"/>
<path transform="translate(924,358)" d="m0 0h1l1 6 2-2 5 4v3l3 1 2 2 7 3 1 3 6 2 2 1v19l-4 5-7 3h-8l-6-3-5-6-1-3v-34z" fill="#248DC3"/>
<path transform="translate(788,351)" d="m0 0h1l1 13 6 2 2 1v2h3l1 3 2 2 1 3 10 4h5l1 1v16l-6 7-7 3h-7l-8-4-4-5-1-3z" fill="#277ABA"/>
<path transform="translate(1227,322)" d="m0 0h1l1 7 3 2h25l2 8v25l-3-3-12 3h-11l-4-4-2-7-2 2v-25l1-1z" fill="#27B0D7"/>
<path transform="translate(1410,358)" d="m0 0 18 1v2h2v5l1 3-6 10-9 11-7 5v-3l-5-2-9-5-10-6-4-2 11-6 9-3 4-4 3-5z" fill="#26B0D7"/>
<path transform="translate(1298,335)" d="m0 0 2 1v2l10 1 5 4 1-3 4 4 4 9 8 8 2 5-6-1v2l-14 5h-5l-1 3-2 1-1 2-5-8-5-14-1-11v-7z" fill="#26B0D7"/>
<path transform="translate(1155,387)" d="m0 0 5 1-1 3 25-3-1 4 4 3 5 3 2 3v5l-7 2-8 1h-15l-15-3-8-3-3-3 1-6 16-6z" fill="#248EC4"/>
<path transform="translate(376,164)" d="m0 0 8 1 17 6 16 8 16 11 13 11 11 11 5 6v2l-5-2-14-8-3-1-3-3-15-5-21-21-9-6-6-3-2-4-8-2z" fill="#249DCB"/>
<path transform="translate(553,316)" d="m0 0 6 1 4 4 10 1h3l1-3 3 1-2 1 1 5-2 5h2l1 12 1 5-2-3-9 1-16 1h-6v-19l2-9z" fill="#248DC3"/>
<path transform="translate(788,345)" d="m0 0 2 4h8l1 1 15 1 1 3 4-1 1-7h1v36l-9-1-8-4-3-5v-3h-3v-2l-6-2-2-1-2-13z" fill="#248CC3"/>
<path transform="translate(1116,324)" d="m0 0 12 4v3h2l2 4 2 16 2 6-3-1-2-7-2 1-16 1h-8l-2 1-1 5-2-4-1-7v-15h2v-4h6l-1 3h4 2l1-3 3 1z" fill="#25B0D7"/>
<path transform="translate(840,368)" d="m0 0 2 3 7 10 4 3 5 5h5l1-3h4v-4l3-1v15l-3 8-8 4h-8l-6-3-6-7z" fill="#277ABA"/>
<path transform="translate(839,293)" d="m0 0 4 1 3-1h7l9 4 9 2 2 2v21l-12-6-5-2-11-6-5-3v89h-1z" fill="#25B0D7"/>
<path transform="translate(1064,371)" d="m0 0 9 1 6 4 3 6v8l-4 7-5 3-2-5 1-4-7-3-1-2-8 1-1 2-3-1-18-1-4-2-1-3-2-2 19-1 12-5z" fill="#27A0CC"/>
<path transform="translate(914,300)" d="m0 0 8 1 6 5 8 3v2h6l1 2 5 3 3 5 3 2 1 6v41h-1v-30h-2l-4-8-10-3h-2l-1-2-10-2-2 1-3-15-5-8z" fill="#27B0D7"/>
<path transform="translate(209,137)" d="m0 0 3 3h4l2 3 6 3 4 3 6 3 1 3h5l-1 4-5 4-7 3h-9l-6-3-6-7-1-2v-12l2-4z" fill="#26B0D7"/>
<path transform="translate(706,329)" d="m0 0 3 1 4 4h2v3l10 3 8 1h5v16l-6 1h-11l-11-4-1-3-3-2z" fill="#248CC3"/>
<path transform="translate(494,371)" d="m0 0 12 1 10 4 10 8v3l1 2-1 4-1-3-2 1v5l-3-1 1 3-4-2-1-6-6-2 1-2-12-2-2-2v-1l-10 1-4 1h-9l-3-4 6-4 9-3z" fill="#249ECC"/>
<path transform="translate(660,343)" d="m0 0h9l7 1 1 1 8-1 1 12 2 3v6l-2 5-3-3-4-2-15-2 1-3h-3l-2-4-4 1 3-11z" fill="#248CC3"/>
<path transform="translate(1029,267)" d="m0 0h10l12 2 13 5 9 7 5 5-1 2-6-5-6 1-8-4-10-1h-20v-2h-6v-2h-4l-3-3v-2z" fill="#3EDBED"/>
<path transform="translate(364,161)" d="m0 0 13 2 2 2 5 2 5 5 9 5 10 9 14 14 15 5 3 3-10-3-16-4v-2l-10-1v-6l-11-11-19-10-5-4v-2l-4-2z" fill="#25AFD7"/>
<path transform="translate(1236,236)" d="m0 0h11l9 6 2 4v23h-1v-12h-3l-4-4-7-3-8-1-6 1-2-1-1 16h-1v-14l2-8 5-5z" fill="#4EE9F0"/>
<path transform="translate(172,229)" d="m0 0 9 1 2 2h-6l-5 10-3 9-2 14h-2l-2-4-6-3-2-2-1-5 3-11 6-7 5-3z" fill="#26B0D7"/>
<path transform="translate(478,70)" d="m0 0 7 4 4 6 2 10-3 9-6 5-5 2 3-10 2-5-2-8-4-8 1-4z" fill="#4FE9F1"/>
<path transform="translate(530,397)" d="m0 0h3l2 3 1 4v18l-4 11-2 1v-2l-2-1 1-15-1-9z" fill="#249FCC"/>
<path transform="translate(406,175)" d="m0 0 6 1 14 9 13 10 3 2-1 3-12-5-11-7-10-9v-3z" fill="#2489C1"/>
<path transform="translate(1347,376)" d="m0 0 9 3 10 1 15-2-2 2-5 3-6 3h-16l-4-4z" fill="#2CB3D9"/>
<path transform="translate(625,290)" d="m0 0h12l6 4v7l-6-1-10-3v-2h-5l1-2h2z" fill="#259FCC"/>
<path transform="translate(224,387)" d="m0 0h3l2 2 3 1 6 7-1 5 2 2-7 2-8-16z" fill="#27539B"/>
<path transform="translate(610,267)" d="m0 0h20l10 2v3l-2 1-13-1-3-3-5 1-1 1h-7l-1-3z" fill="#2AC1E0"/>
<path transform="translate(1277,397)" d="m0 0 7 1-2 4-10 4-4-1-3 1-1-4 7-4z" fill="#248CC3"/>
<path transform="translate(1022,325)" d="m0 0h28l-2 4-10 1-10-2-6-2z" fill="#5AD0E8"/>
<path transform="translate(577,280)" d="m0 0h2l1 5-10 7-5 3-3 3-2-1 11-12z" fill="#2CB2D8"/>
<path transform="translate(256,134)" d="m0 0 6 1-3 5-6 5h-3v-3h-3l1-3 7-2z" fill="#28B2D9"/>
<path transform="translate(564,129)" d="m0 0 5 3 8 8-1 2-4-1-5-1-3-4z" fill="#4EE8F0"/>
<path transform="translate(445,202)" d="m0 0 4 2 8 8 5 6v2l-5-2-4-4-1-4-7-6z" fill="#258DC3"/>
<path transform="translate(812,291)" d="m0 0 5 2 3 10-2 1-3-2-3-7z" fill="#27C0E0"/>
<path transform="translate(943,401)" d="m0 0 4 1v3l-2 1h-10v-3l1-1z" fill="#2878B9"/>
<path transform="translate(610,267)" d="m0 0h8l-2 4h-7l-1-3z" fill="#27BFDF"/>
</svg>